<svg width="25" height="25" viewBox="0 0 25 25" fill="none" xmlns="http://www.w3.org/2000/svg">
<path d="M10.3936 16.3945V8.39453C10.3936 7.29453 11.2836 6.39453 12.3936 6.39453H21.3936V5.39453C21.3936 4.29453 20.4936 3.39453 19.3936 3.39453H5.39355C4.28355 3.39453 3.39355 4.29453 3.39355 5.39453V19.3945C3.39355 20.4945 4.28355 21.3945 5.39355 21.3945H19.3936C20.4936 21.3945 21.3936 20.4945 21.3936 19.3945V18.3945H12.3936C11.2836 18.3945 10.3936 17.4945 10.3936 16.3945ZM13.3936 8.39453C12.8436 8.39453 12.3936 8.84453 12.3936 9.39453V15.3945C12.3936 15.9445 12.8436 16.3945 13.3936 16.3945H22.3936V8.39453H13.3936ZM16.3936 13.8945C15.5636 13.8945 14.8936 13.2245 14.8936 12.3945C14.8936 11.5645 15.5636 10.8945 16.3936 10.8945C17.2236 10.8945 17.8936 11.5645 17.8936 12.3945C17.8936 13.2245 17.2236 13.8945 16.3936 13.8945Z" fill="#FF6164"/>
</svg>
